PathFileType	4	(X/Y/Z)	20_1_49_p1_0-465_filt_butterworth.trc
DataRate	CameraRate	NumFrames	NumMarkers	Units	OrigDataRate	OrigDataStartFrame	OrigNumFrames
60.0	60.0	6	27	m	60.0	116	465
Frame#	Time	RHip			RKnee			RAnkle			RBigToe			RSmallToe			RHeel			LHip			LKnee			LAnkle			LBigToe			LSmallToe			LHeel			Neck			Head			Nose			RShoulder			RElbow			RWrist			RThumb			RIndex			RPinky			LShoulder			LElbow			LWrist			LThumb			LIndex			LPinky			
		X1	Y1	Z1	X2	Y2	Z2	X3	Y3	Z3	X4	Y4	Z4	X5	Y5	Z5	X6	Y6	Z6	X7	Y7	Z7	X8	Y8	Z8	X9	Y9	Z9	X10	Y10	Z10	X11	Y11	Z11	X12	Y12	Z12	X13	Y13	Z13	X14	Y14	Z14	X15	Y15	Z15	X16	Y16	Z16	X17	Y17	Z17	X18	Y18	Z18	X19	Y19	Z19	X20	Y20	Z20	X21	Y21	Z21	X22	Y22	Z22	X23	Y23	Z23	X24	Y24	Z24	X25	Y25	Z25	X26	Y26	Z26	X27	Y27	Z27	
116	1.9333333333333331	0.34065511776298907	0.5207652543587947	0.9845379056578225	0.3337169727623102	0.6364353497095505	1.3578546199158716	0.34763120603159436	0.7576488603550044	1.7238151072766028	0.31765722601315255	0.63623134166914	1.8126237857494323	0.3809119519696291	0.6157219375652003	1.7888015351310917	0.33434164981836056	0.8546588812697093	1.7899730820725805	0.15355015053390464	0.5333321141702274	0.980799413514365	0.1465525495305312	0.6985456689785088	1.3704824316029445	0.14286046313887169	0.7900806936942475	1.7059537628299355	0.13377372422361888	0.6247921001702126	1.7933097623885803	0.08277040919486889	0.6746425875473897	1.7800956730898065	0.16357956586551223	0.8267332717187319	1.7523419846863935	0.25324700536438793	0.44734158809534746	0.4492188355213372	0.24625939091873944	0.3256175215695192	0.22469795454029	0.23067593691761829	0.2748969288433171	0.3535692776245056	0.38936391839895396	0.4327998183492928	0.5308433190789982	0.43066419238751974	0.4609400524214761	0.7649963200078125	0.3566952228290722	0.24091062630018165	0.7772818848597435	0.2820692248509681	0.14821208153113782	0.729374271007465	0.28645099504586335	0.12293833847013283	0.7490314968407282	0.29820753156069824	0.1569489578015755	0.8012750332612468	0.10825639640009986	0.4728919251343837	0.5237503614799855	0.06683649110533031	0.49684672364687527	0.7500363518500198	0.07331667404993858	0.2717506860479748	0.743200948836783	0.11703674563843303	0.17298884773736198	0.6956448096928087	0.09905118552998346	0.14288882047645898	0.7103703031902664	0.10088173218621763	0.15898529479176873	0.7707990939259356
117	1.95	0.3410068555744583	0.5195499719865098	0.9810495390511768	0.3337557006057709	0.6361683320189154	1.3558847633184032	0.3476343946790021	0.7576287168912843	1.7238826564447982	0.3163041189219049	0.6364234535550944	1.812804071934983	0.38043407634736887	0.6201940304043762	1.7892538420949	0.33432421447219773	0.8545276404822546	1.788815872645084	0.15419363319739696	0.5361362247164019	0.9779214957459273	0.14637103738133472	0.6986709445322112	1.3687721624019475	0.1430638443143511	0.7900477518161301	1.7046842597128575	0.1340538675350501	0.6244601280985812	1.7928407843823446	0.0829109763054276	0.6745823578354735	1.7793316912409143	0.16332174395722962	0.8264208904318882	1.7509180570397458	0.25317998042745055	0.4478877321576219	0.44857486198672925	0.24508850321401826	0.3227485416692584	0.22510623557496712	0.2306417901976692	0.2745582651998715	0.35382840614387623	0.388029209948896	0.43647333391806037	0.5308907803042501	0.42992267351377467	0.4574145213731386	0.77220321109316	0.3606122828608081	0.24272176551607624	0.7559856234020017	0.29379139042862945	0.14984459934763616	0.6974066135024504	0.2974987969145491	0.1327315486484419	0.7163734386616151	0.30188975009874325	0.16584174235652477	0.7673379001176726	0.10899948446999402	0.47560605633669684	0.523328921540396	0.06443834366167041	0.48681528251540024	0.7572821605518736	0.07114664164400093	0.2660802407991074	0.7158640994745804	0.10610475233642766	0.18585296628331796	0.6554331393054103	0.09279692785451119	0.14782864048090502	0.6670602872847052	0.09526807990977917	0.1555116444620548	0.7285359160165922
118	1.9666666666666663	0.34135214203827174	0.5137265446668179	0.9769982994970197	0.33347535162530906	0.6356698767513265	1.3544712104637657	0.34763346788155575	0.7575843354570843	1.7239002650284558	0.31520656661333624	0.6367446184931297	1.8130567219079787	0.3797657290226772	0.6257235707322395	1.7895674128074388	0.3344230902391644	0.8546724034919497	1.7876530450503871	0.15515141918004646	0.5405933746351285	0.9760830731530908	0.14587502239910666	0.6985686821916579	1.3666288911801043	0.14311426533442548	0.7900613913121357	1.7031764491826487	0.13430383884362868	0.6242027530863651	1.7924771876943948	0.08298986826465006	0.6745308376237626	1.7786826464045444	0.16305782960806184	0.825534801690001	1.7489733254799351	0.25341834084510667	0.44668549287038006	0.44668879080915574	0.24445802722279894	0.32129808288025663	0.22519746890171058	0.23138143718332688	0.2748822067737807	0.3545868200487658	0.387238778423384	0.43638412455176023	0.5308844567865969	0.4288663177385127	0.4550576862847669	0.7799224746925232	0.3637567386293893	0.24739839699985838	0.7351289502651662	0.30207395070814186	0.1527200256746251	0.6664828925396918	0.30540141770375406	0.1396475447118594	0.6864594679701453	0.30578287162413814	0.17123112783210848	0.7369037768957367	0.10894908869554104	0.4758752801650577	0.5221386717436151	0.06270689072465517	0.4761326422633171	0.7655747022764783	0.0704979071721532	0.2622928504063367	0.6924191588377563	0.09666880358750515	0.20637118272427687	0.6183254902513363	0.08687505628126961	0.16090418499023063	0.6290059944697921	0.09191089677018618	0.15782244607786275	0.6898023895593196
119	1.9833333333333332	0.3415751445216465	0.5076314944981648	0.9738166892237705	0.33296929511883394	0.6352120942527244	1.3540711086714623	0.34762384783210637	0.7575571512565282	1.7238693995531957	0.3147038639962001	0.6370349738405948	1.8131741325823918	0.379119367227356	0.6298293142288472	1.7900773281508942	0.3346828223596662	0.8549405578851135	1.7861970433728047	0.15596666167775175	0.5441944904747764	0.9752783240608627	0.14533513788463331	0.6979873105825727	1.364765502638692	0.14308081364533118	0.7900859888723906	1.702039049195571	0.13445806904548502	0.6240514581636807	1.792307467413454	0.08312833420695549	0.6743433745225414	1.778066931949642	0.162849767850949	0.8242226494077567	1.7473649934301336	0.2542174978005511	0.442020256155391	0.4443854500978487	0.24439537047446233	0.321035865789945	0.22484704180122358	0.2333599129397482	0.2766994951531877	0.3557747676180914	0.3872304515112317	0.43260408599774575	0.5304865396031317	0.4283078968461333	0.4510917216634825	0.7844070389099415	0.3659377771170606	0.2521512848134938	0.7167572504923344	0.30831590990225066	0.15829333400281473	0.6382929598027213	0.30983444508261276	0.14428557514452478	0.6585691653857109	0.30829572813047984	0.17137078032537378	0.7107018349582948	0.10827147217751452	0.474918797709869	0.518451103666281	0.06175188309213023	0.4682775619909229	0.7709619378995775	0.07123407959125085	0.26388385959852667	0.6737643915330613	0.0914067360603277	0.2299015472290127	0.5873383620552961	0.08076580413441554	0.1813082741540503	0.5979752777399177	0.08973271192978921	0.1679908111413617	0.6559459481146375
120	2.0	0.34118400782162017	0.5031397794152999	0.9718847196467113	0.3325616713463562	0.6350072009906867	1.354003267364303	0.34760699460129646	0.7575586318035232	1.7238089999090258	0.31468365085470074	0.637072409727986	1.8127350687469796	0.3786034644714038	0.6313710997830538	1.7907713835290568	0.33501825429094817	0.8550958295116321	1.7844168076913451	0.1563509871282017	0.545723421109511	0.9750577998360682	0.1450144174068122	0.6968082979587272	1.3628820059709845	0.14304394628323364	0.7901075339043632	1.701564488890599	0.13451166261279227	0.6239660287076005	1.7922575496607491	0.08330683902335848	0.674082073871512	1.7775450867793765	0.1627107716833598	0.8230561698367518	1.746565396033042	0.2553973069809198	0.4342209549104834	0.4432514206196494	0.2450118305025151	0.32145005646055824	0.2239794178744479	0.2360325418884058	0.2799231934535384	0.3570800072673645	0.38785222616988635	0.42744383107575323	0.5295090327031646	0.4281941343451848	0.4437399857328294	0.7853795427846059	0.3668782128566769	0.2540614927505197	0.7019439572532391	0.3141888857849404	0.1679788463928328	0.6142279135681067	0.3117741862197563	0.14859584240510176	0.6327908511080818	0.3087208389181139	0.16737746712199045	0.6877050391782827	0.10721730817498161	0.47341645276810534	0.5123531925366975	0.06049061848401108	0.46310097014826146	0.7722460319004449	0.07357187287398372	0.2698962577508017	0.6596325210702786	0.09045301132435199	0.25089667091662726	0.5652181031923971	0.07654406482206541	0.20368840523548676	0.5753691224193889	0.0890114378678431	0.1856202698918239	0.6276847124668303
121	2.0166666666666666	0.3399033132419792	0.4991122677748434	0.970568803111475	0.3323235123754937	0.6346462912113462	1.3532520111996735	0.34759504223744847	0.7575862880124566	1.7237566069062793	0.3149145038839837	0.6366113465707925	1.8113804733844232	0.37820012592292435	0.631227269149974	1.7913263730192122	0.33526937411467506	0.8550895533186863	1.782982511305317	0.1564582603760197	0.5459623768631651	0.9749205862728115	0.1449286746370796	0.6954304748426255	1.360656897425394	0.14302701399728351	0.7901523902952854	1.7015548577347708	0.13445752672139136	0.6239645661742385	1.7924085759696489	0.08342116137374378	0.6739340903759586	1.777285404102669	0.1626525622497302	0.8225056781572789	1.7464120141902835	0.25642109024767445	0.42639172676439896	0.443897024926124	0.24656361202985472	0.32203154755087293	0.222910250521208	0.238091388094178	0.2823061121806311	0.35811550676705933	0.38859262862623173	0.4238498150013791	0.5282472481512929	0.42784515397301515	0.4333161581013881	0.7851186298746307	0.36706287412974375	0.2527118236062965	0.689292527514328	0.32037102581040783	0.1811375424433241	0.5944036380891702	0.31309013786433376	0.15345976919335214	0.6102562786418454	0.30836066779043947	0.1615733419347672	0.6677064593779133	0.10654409499801878	0.4719137073565305	0.5060254115877882	0.05841397727856701	0.45842851378102073	0.7705214894383016	0.0770795709296164	0.2761443472206149	0.6477384032120137	0.09201015253065817	0.2672479102561506	0.551036248689829	0.07640464419779659	0.2226552852591328	0.5608644227877548	0.0908035417373647	0.20712489955736976	0.6050853872922426
